<svg width="87" height="24" viewBox="0 0 87 24" fill="none" xmlns="http://www.w3.org/2000/svg">
<g clip-path="url(#clip0_2189_6996)">
<path d="M9.81334 3.97273V10.7425H3.49819V3.97273H0.5V20.1328H3.49819V13.5829H9.81334V20.1328H12.8115V3.97273H9.81334Z" fill="#33475B"/>
<path d="M22.407 14.909C22.407 15.5567 22.1457 16.1778 21.6805 16.6357C21.2153 17.0937 20.5845 17.351 19.9266 17.351C19.2688 17.351 18.6379 17.0937 18.1727 16.6357C17.7076 16.1778 17.4462 15.5567 17.4462 14.909V7.98743H14.6023V14.909C14.6023 16.2979 15.1627 17.6299 16.1602 18.612C17.1578 19.5941 18.5107 20.1458 19.9215 20.1458C21.3322 20.1458 22.6852 19.5941 23.6827 18.612C24.6802 17.6299 25.2407 16.2979 25.2407 14.909V7.98743H22.407V14.909Z" fill="#33475B"/>
<path d="M43.4781 8.70042C43.4781 7.28168 44.4315 6.83191 45.4759 6.83191C46.3176 6.83191 47.4297 7.46246 48.1568 8.22751L50.0195 6.06686C49.0896 4.82889 47.2034 3.97273 45.6595 3.97273C42.5747 3.97273 40.3433 5.75158 40.3433 8.70042C40.3433 14.1715 47.1359 12.436 47.1359 15.4977C47.1359 16.442 46.2045 17.2765 45.1381 17.2765C43.4561 17.2765 42.9111 16.4666 42.1384 15.6105L40.0715 17.7263C41.3936 19.3243 43.0242 20.1357 44.9779 20.1357C47.9086 20.1357 50.2663 18.3351 50.2663 15.5208C50.2663 9.44667 43.4737 11.334 43.4737 8.70042" fill="#33475B"/>
<path d="M85.4995 17.5513C83.819 17.5513 83.3416 16.8354 83.3416 15.7392V10.8871H85.9535V8.42853H83.3416V5.18466L80.458 6.45878V16.3422C80.458 18.8702 82.2296 20.1443 84.6593 20.1443C85.0404 20.1512 85.4212 20.1212 85.7963 20.0547L86.4999 17.505C86.1826 17.5267 85.8183 17.5484 85.4995 17.5484" fill="#33475B"/>
<path d="M33.2318 8.06844C31.823 8.06844 30.8403 8.47048 29.8899 9.38883V4.06964H27.0415V13.9285C27.0415 17.6193 29.7518 20.1473 32.797 20.1473C36.1756 20.1473 39.1474 17.5744 39.1474 14.1093C39.1474 10.6875 36.4121 8.06988 33.2318 8.06988V8.06844ZM33.2142 17.3257C32.575 17.3257 31.9502 17.1391 31.4187 16.7895C30.8872 16.4399 30.473 15.943 30.2284 15.3616C29.9838 14.7802 29.9198 14.1405 30.0445 13.5233C30.1692 12.9061 30.477 12.3392 30.929 11.8942C31.3809 11.4492 31.9568 11.1462 32.5837 11.0235C33.2106 10.9007 33.8604 10.9637 34.4509 11.2045C35.0414 11.4453 35.5462 11.8531 35.9013 12.3764C36.2564 12.8996 36.4459 13.5147 36.4459 14.144C36.4459 14.9878 36.1054 15.7971 35.4994 16.3938C34.8933 16.9905 34.0713 17.3257 33.2142 17.3257Z" fill="#33475B"/>
<path d="M64.1596 13.9618C64.1596 10.4909 61.1937 7.92383 57.8092 7.92383C54.764 7.92383 52.0537 10.4518 52.0537 14.1426V24.0072H54.9021V18.6808C55.851 19.5977 56.8352 20.0012 58.2425 20.0012C61.4229 20.0012 64.1581 17.385 64.1581 13.9618H64.1596ZM61.4625 13.9271C61.4625 14.5564 61.273 15.1715 60.9179 15.6947C60.5628 16.2179 60.058 16.6258 59.4675 16.8666C58.877 17.1074 58.2272 17.1704 57.6003 17.0476C56.9734 16.9249 56.3975 16.6218 55.9456 16.1769C55.4936 15.7319 55.1858 15.165 55.0611 14.5478C54.9364 13.9306 55.0004 13.2909 55.245 12.7095C55.4896 12.1281 55.9038 11.6312 56.4353 11.2816C56.9668 10.932 57.5916 10.7454 58.2308 10.7454C59.0879 10.7454 59.9099 11.0806 60.516 11.6773C61.122 12.274 61.4625 13.0832 61.4625 13.9271Z" fill="#33475B"/>
<path d="M73.3614 7.78788V4.97065C73.7396 4.79669 74.0598 4.52056 74.2847 4.1744C74.5097 3.82824 74.6301 3.4263 74.6321 3.01536V2.95028C74.6321 2.37494 74.3999 1.82316 73.9867 1.41634C73.5734 1.00951 73.013 0.780954 72.4286 0.780954H72.3625C71.7781 0.780954 71.2176 1.00951 70.8044 1.41634C70.3912 1.82316 70.159 2.37494 70.159 2.95028V3.01536C70.161 3.4263 70.2814 3.82824 70.5064 4.1744C70.7313 4.52056 71.0515 4.79669 71.4297 4.97065V7.78788C70.3428 7.95159 69.3191 8.39512 68.4623 9.07357L60.6151 3.05586C60.6706 2.85741 60.7002 2.65281 60.7032 2.447C60.7041 1.96354 60.5593 1.49068 60.2871 1.08824C60.015 0.685806 59.6278 0.371862 59.1744 0.186123C58.721 0.00038428 58.2219 -0.0488052 57.7401 0.0447766C57.2583 0.138358 56.8155 0.370507 56.4678 0.711859C56.12 1.05321 55.8829 1.48843 55.7864 1.96247C55.6899 2.43651 55.7384 2.92807 55.9257 3.37497C56.1131 3.82188 56.4308 4.20405 56.8388 4.47315C57.2467 4.74226 57.7266 4.8862 58.2177 4.88677C58.6471 4.88488 59.0685 4.77218 59.4399 4.55992L67.1682 10.4793C66.4737 11.5119 66.1114 12.7265 66.1285 13.9647C66.1455 15.203 66.5411 16.4075 67.2637 17.4211L64.9133 19.7351C64.7232 19.6753 64.5252 19.6437 64.3257 19.6411C63.9226 19.6414 63.5285 19.7593 63.1935 19.98C62.8584 20.2007 62.5973 20.5142 62.4431 20.8809C62.289 21.2477 62.2487 21.6512 62.3275 22.0404C62.4062 22.4297 62.6003 22.7872 62.8854 23.0679C63.1705 23.3485 63.5336 23.5397 63.929 23.6172C64.3244 23.6947 64.7342 23.655 65.1068 23.5033C65.4793 23.3515 65.7977 23.0945 66.0219 22.7646C66.246 22.4347 66.3658 22.0468 66.3661 21.6499C66.3636 21.4535 66.3314 21.2585 66.2706 21.0714L68.596 18.782C69.3543 19.3565 70.236 19.7525 71.1737 19.9397C72.1114 20.1269 73.0802 20.1003 74.0059 19.8619C74.9315 19.6236 75.7895 19.1799 76.5141 18.5647C77.2386 17.9496 77.8106 17.1793 78.1861 16.3129C78.5617 15.4466 78.7308 14.5071 78.6806 13.5664C78.6304 12.6257 78.3621 11.7089 77.8964 10.886C77.4308 10.0632 76.78 9.35615 75.9939 8.81915C75.2078 8.28214 74.3073 7.92938 73.3614 7.78788ZM72.3977 17.0524C71.7617 17.0518 71.14 16.8656 70.6114 16.5173C70.0828 16.169 69.6709 15.6742 69.4278 15.0955C69.1847 14.5168 69.1213 13.8802 69.2457 13.266C69.37 12.6519 69.6765 12.0878 70.1264 11.6451C70.5763 11.2024 71.1494 10.9009 71.7732 10.7787C72.3971 10.6566 73.0438 10.7193 73.6315 10.9589C74.2191 11.1985 74.7215 11.6042 75.0751 12.1248C75.4286 12.6454 75.6175 13.2575 75.6177 13.8837C75.6177 14.7237 75.2788 15.5293 74.6755 16.1233C74.0722 16.7172 73.2539 17.0509 72.4007 17.0509" fill="#FF7A59"/>
</g>
<defs>
<clipPath id="clip0_2189_6996">
<rect width="86" height="24" fill="white" transform="translate(0.5)"/>
</clipPath>
</defs>
</svg>
