<svg width="135" height="40" viewBox="0 0 135 40" fill="none" xmlns="http://www.w3.org/2000/svg">
<g clip-path="url(#clip0_2189_10241)">
<path d="M130 0H5C2.23858 0 0 2.23858 0 5V35C0 37.7614 2.23858 40 5 40H130C132.761 40 135 37.7614 135 35V5C135 2.23858 132.761 0 130 0Z" fill="black"/>
<path d="M130 0.7998C131.114 0.801086 132.181 1.24403 132.968 2.03145C133.756 2.81887 134.199 3.88646 134.2 5V35C134.199 36.1135 133.756 37.1811 132.968 37.9685C132.181 38.7559 131.114 39.1989 130 39.2002H5C3.88645 39.1989 2.81888 38.756 2.0315 37.9686C1.24412 37.1811 0.801231 36.1135 0.8 35V5C0.801212 3.88644 1.24409 2.81884 2.03148 2.03142C2.81886 1.244 3.88644 0.801065 5 0.7998H130ZM130 0H5C3.67511 0.0038781 2.40559 0.531908 1.46875 1.46875C0.531908 2.40559 0.0038781 3.67511 0 5L0 35C0.0038781 36.3249 0.531908 37.5944 1.46875 38.5312C2.40559 39.4681 3.67511 39.9961 5 40H130C131.325 39.9961 132.594 39.4681 133.531 38.5312C134.468 37.5944 134.996 36.3249 135 35V5C134.996 3.67511 134.468 2.40559 133.531 1.46875C132.594 0.531908 131.325 0.0038781 130 0Z" fill="#A6A6A6"/>
<path d="M47.4185 10.2433C47.4367 10.6103 47.38 10.9771 47.2519 11.3214C47.1238 11.6658 46.9269 11.9804 46.6733 12.2462C46.3891 12.541 46.0459 12.7724 45.666 12.9254C45.2862 13.0784 44.8784 13.1494 44.4692 13.1339C44.0574 13.1376 43.6491 13.059 43.2681 12.9026C42.8872 12.7462 42.5413 12.5152 42.2509 12.2233C41.9605 11.9313 41.7314 11.5842 41.5771 11.2024C41.4227 10.8207 41.3462 10.4119 41.3521 10.0001C41.3463 9.58837 41.4228 9.17959 41.5772 8.79781C41.7315 8.41603 41.9606 8.06895 42.251 7.77695C42.5414 7.48496 42.8872 7.25395 43.2681 7.09748C43.6491 6.94102 44.0574 6.86226 44.4692 6.86584C44.8926 6.86456 45.3117 6.95016 45.7007 7.11734C46.062 7.26378 46.3835 7.49348 46.6392 7.78774L46.1118 8.31554C45.9108 8.07899 45.6582 7.89178 45.3734 7.76834C45.0886 7.64491 44.7793 7.58856 44.4692 7.60364C44.1571 7.60202 43.8479 7.66341 43.5601 7.78412C43.2724 7.90483 43.0119 8.08239 42.7943 8.30615C42.5768 8.52991 42.4066 8.79527 42.2941 9.08635C42.1815 9.37743 42.1288 9.68823 42.1392 10.0001C42.1318 10.4673 42.2632 10.9262 42.5169 11.3186C42.7706 11.711 43.1352 12.0192 43.5642 12.2041C43.9933 12.3891 44.4677 12.4425 44.9272 12.3575C45.3866 12.2725 45.8105 12.0529 46.145 11.7267C46.4529 11.395 46.6314 10.9637 46.6479 10.5113H44.4692V9.79064H47.3765C47.404 9.93998 47.4181 10.0915 47.4185 10.2433Z" fill="white"/>
<path d="M52.0278 7.73744H49.2954V9.63974H51.7593V10.3605H49.2954V12.2628H52.0278V13.0001H48.5249V7.00014H52.0278V7.73744Z" fill="white"/>
<path d="M55.2788 13.0001H54.5073V7.73744H52.8315V7.00014H56.9546V7.73744H55.2788V13.0001Z" fill="white"/>
<path d="M59.938 13.0001V7.00014H60.7085V13.0001H59.938Z" fill="white"/>
<path d="M64.1284 13.0001H63.3569V7.73744H61.6812V7.00014H65.8042V7.73744H64.1284V13.0001Z" fill="white"/>
<path d="M73.6094 12.2247C73.0254 12.807 72.2344 13.1339 71.4097 13.1339C70.5851 13.1339 69.794 12.807 69.21 12.2247C68.9211 11.9321 68.694 11.5844 68.5422 11.2022C68.3903 10.82 68.3169 10.4113 68.3262 10.0001C68.3169 9.58902 68.3903 9.18023 68.5422 8.79807C68.694 8.4159 68.9211 8.06817 69.21 7.77554C69.4987 7.48681 69.8414 7.25784 70.2187 7.10174C70.596 6.94564 71.0003 6.86548 71.4086 6.86584C71.8169 6.8662 72.2211 6.94708 72.598 7.10385C72.975 7.26062 73.3174 7.49019 73.6055 7.77944C73.8946 8.0713 74.1222 8.41825 74.2747 8.79972C74.4272 9.18119 74.5015 9.5894 74.4932 10.0001C74.5023 10.4112 74.4287 10.8199 74.2769 11.2021C74.1251 11.5842 73.8981 11.932 73.6094 12.2247ZM69.7793 11.7223C70.2119 12.1541 70.7981 12.3966 71.4092 12.3966C72.0204 12.3966 72.6066 12.1541 73.0391 11.7223C73.2609 11.4953 73.4344 11.2256 73.549 10.9296C73.6637 10.6336 73.7171 10.3174 73.7061 10.0001C73.7171 9.6829 73.6637 9.36672 73.549 9.07072C73.4344 8.77471 73.2609 8.50502 73.0391 8.27794C72.6066 7.84615 72.0204 7.60363 71.4092 7.60363C70.7981 7.60363 70.2119 7.84615 69.7793 8.27794C69.5578 8.5052 69.3847 8.77495 69.2702 9.07092C69.1557 9.3669 69.1024 9.68299 69.1133 10.0001C69.1024 10.3173 69.1557 10.6334 69.2702 10.9294C69.3847 11.2253 69.5578 11.4951 69.7793 11.7223Z" fill="white"/>
<path d="M75.5752 13.0001V7.00014H76.5137L79.4297 11.6676H79.4629L79.4297 10.5113V7.00014H80.2012V13.0001H79.3965L76.3457 8.10654H76.3125L76.3457 9.26284V13.0001H75.5752Z" fill="white"/>
<path d="M47.4185 10.2433C47.4367 10.6103 47.38 10.9771 47.2519 11.3214C47.1238 11.6658 46.9269 11.9804 46.6733 12.2462C46.3891 12.541 46.0459 12.7724 45.666 12.9254C45.2862 13.0784 44.8784 13.1494 44.4692 13.1339C44.0574 13.1376 43.6491 13.059 43.2681 12.9026C42.8872 12.7462 42.5413 12.5152 42.2509 12.2233C41.9605 11.9313 41.7314 11.5842 41.5771 11.2024C41.4227 10.8207 41.3462 10.4119 41.3521 10.0001C41.3463 9.58837 41.4228 9.17959 41.5772 8.79781C41.7315 8.41603 41.9606 8.06895 42.251 7.77695C42.5414 7.48496 42.8872 7.25395 43.2681 7.09748C43.6491 6.94102 44.0574 6.86226 44.4692 6.86584C44.8926 6.86456 45.3117 6.95016 45.7007 7.11734C46.062 7.26378 46.3835 7.49348 46.6392 7.78774L46.1118 8.31554C45.9108 8.07899 45.6582 7.89178 45.3734 7.76834C45.0886 7.64491 44.7793 7.58856 44.4692 7.60364C44.1571 7.60202 43.8479 7.66341 43.5601 7.78412C43.2724 7.90483 43.0119 8.08239 42.7943 8.30615C42.5768 8.52991 42.4066 8.79527 42.2941 9.08635C42.1815 9.37743 42.1288 9.68823 42.1392 10.0001C42.1318 10.4673 42.2632 10.9262 42.5169 11.3186C42.7706 11.711 43.1352 12.0192 43.5642 12.2041C43.9933 12.3891 44.4677 12.4425 44.9272 12.3575C45.3866 12.2725 45.8105 12.0529 46.145 11.7267C46.4529 11.395 46.6314 10.9637 46.6479 10.5113H44.4692V9.79064H47.3765C47.404 9.93998 47.4181 10.0915 47.4185 10.2433Z" stroke="white" stroke-width="0.2" stroke-miterlimit="10"/>
<path d="M52.0278 7.73744H49.2954V9.63974H51.7593V10.3605H49.2954V12.2628H52.0278V13.0001H48.5249V7.00014H52.0278V7.73744Z" stroke="white" stroke-width="0.2" stroke-miterlimit="10"/>
<path d="M55.2788 13.0001H54.5073V7.73744H52.8315V7.00014H56.9546V7.73744H55.2788V13.0001Z" stroke="white" stroke-width="0.2" stroke-miterlimit="10"/>
<path d="M59.938 13.0001V7.00014H60.7085V13.0001H59.938Z" stroke="white" stroke-width="0.2" stroke-miterlimit="10"/>
<path d="M64.1284 13.0001H63.3569V7.73744H61.6812V7.00014H65.8042V7.73744H64.1284V13.0001Z" stroke="white" stroke-width="0.2" stroke-miterlimit="10"/>
<path d="M73.6094 12.2247C73.0254 12.807 72.2344 13.1339 71.4097 13.1339C70.5851 13.1339 69.794 12.807 69.21 12.2247C68.9211 11.9321 68.694 11.5844 68.5422 11.2022C68.3903 10.82 68.3169 10.4113 68.3262 10.0001C68.3169 9.58902 68.3903 9.18023 68.5422 8.79807C68.694 8.4159 68.9211 8.06817 69.21 7.77554C69.4987 7.48681 69.8414 7.25784 70.2187 7.10174C70.596 6.94564 71.0003 6.86548 71.4086 6.86584C71.8169 6.8662 72.2211 6.94708 72.598 7.10385C72.975 7.26062 73.3174 7.49019 73.6055 7.77944C73.8946 8.0713 74.1222 8.41825 74.2747 8.79972C74.4272 9.18119 74.5015 9.5894 74.4932 10.0001C74.5023 10.4112 74.4287 10.8199 74.2769 11.2021C74.1251 11.5842 73.8981 11.932 73.6094 12.2247ZM69.7793 11.7223C70.2119 12.1541 70.7981 12.3966 71.4092 12.3966C72.0204 12.3966 72.6066 12.1541 73.0391 11.7223C73.2609 11.4953 73.4344 11.2256 73.549 10.9296C73.6637 10.6336 73.7171 10.3174 73.7061 10.0001C73.7171 9.6829 73.6637 9.36672 73.549 9.07072C73.4344 8.77471 73.2609 8.50502 73.0391 8.27794C72.6066 7.84615 72.0204 7.60363 71.4092 7.60363C70.7981 7.60363 70.2119 7.84615 69.7793 8.27794C69.5578 8.5052 69.3847 8.77495 69.2702 9.07092C69.1557 9.3669 69.1024 9.68299 69.1133 10.0001C69.1024 10.3173 69.1557 10.6334 69.2702 10.9294C69.3847 11.2253 69.5578 11.4951 69.7793 11.7223Z" stroke="white" stroke-width="0.2" stroke-miterlimit="10"/>
<path d="M75.5752 13.0001V7.00014H76.5137L79.4297 11.6676H79.4629L79.4297 10.5113V7.00014H80.2012V13.0001H79.3965L76.3457 8.10654H76.3125L76.3457 9.26284V13.0001H75.5752Z" stroke="white" stroke-width="0.2" stroke-miterlimit="10"/>
<path d="M68.1359 21.7519C67.2954 21.7551 66.4746 22.0073 65.7773 22.4766C65.08 22.9458 64.5374 23.6112 64.2179 24.3887C63.8985 25.1661 63.8166 26.0208 63.9825 26.8448C64.1484 27.6687 64.5548 28.4251 65.1503 29.0183C65.7457 29.6115 66.5036 30.0149 67.3282 30.1777C68.1528 30.3405 69.0071 30.2554 69.7834 29.933C70.5596 29.6106 71.2229 29.0654 71.6895 28.3663C72.1561 27.6672 72.4052 26.8456 72.4052 26.0051C72.4134 25.4429 72.3085 24.8848 72.0967 24.364C71.8849 23.8432 71.5704 23.3703 71.1721 22.9735C70.7738 22.5767 70.2997 22.264 69.7781 22.0542C69.2565 21.8443 68.698 21.7416 68.1359 21.7519ZM68.1359 28.5828C67.6182 28.6197 67.1015 28.4999 66.6529 28.239C66.2043 27.9781 65.8447 27.5882 65.6208 27.12C65.3969 26.6519 65.3191 26.1272 65.3976 25.6142C65.4761 25.1012 65.7072 24.6238 66.0609 24.244C66.4145 23.8642 66.8743 23.5997 67.3804 23.4849C67.8865 23.3701 68.4154 23.4104 68.8983 23.6004C69.3812 23.7904 69.7957 24.1214 70.0879 24.5503C70.38 24.9792 70.5363 25.4861 70.5363 26.0051C70.552 26.3329 70.5019 26.6606 70.3891 26.9688C70.2763 27.277 70.1029 27.5595 69.8792 27.7997C69.6555 28.0399 69.3861 28.2329 69.0867 28.3674C68.7873 28.5019 68.464 28.5751 68.1359 28.5828ZM58.8225 21.7519C57.982 21.7551 57.1612 22.0073 56.4639 22.4765C55.7666 22.9458 55.2239 23.6112 54.9045 24.3886C54.585 25.166 54.5031 26.0207 54.669 26.8447C54.8349 27.6687 55.2413 28.425 55.8367 29.0182C56.4322 29.6114 57.1901 30.0149 58.0147 30.1777C58.8393 30.3405 59.6936 30.2554 60.4698 29.933C61.2461 29.6106 61.9094 29.0654 62.376 28.3663C62.8426 27.6672 63.0917 26.8456 63.0917 26.0051C63.0999 25.4429 62.995 24.8848 62.7832 24.364C62.5714 23.8432 62.257 23.3703 61.8586 22.9735C61.4603 22.5767 60.9863 22.2641 60.4647 22.0542C59.9431 21.8444 59.3846 21.7416 58.8225 21.7519ZM58.8225 28.5828C58.3048 28.6197 57.7881 28.4999 57.3395 28.239C56.8909 27.9781 56.5313 27.5882 56.3074 27.12C56.0835 26.6519 56.0057 26.1272 56.0842 25.6142C56.1627 25.1012 56.3938 24.6238 56.7475 24.244C57.1011 23.8642 57.5609 23.5997 58.067 23.4849C58.5731 23.3701 59.102 23.4104 59.5849 23.6004C60.0678 23.7904 60.4823 24.1214 60.7745 24.5503C61.0666 24.9792 61.2229 25.4861 61.2229 26.0051C61.2386 26.3329 61.1886 26.6606 61.0757 26.9688C60.9629 27.277 60.7895 27.5595 60.5658 27.7997C60.3422 28.0399 60.0727 28.2329 59.7733 28.3674C59.4739 28.5019 59.1506 28.5751 58.8225 28.5828ZM47.7437 23.0569V24.8612H52.0614C51.9991 25.7076 51.6528 26.508 51.0786 27.1329C50.6459 27.5739 50.1256 27.9193 49.5511 28.1468C48.9767 28.3744 48.361 28.479 47.7437 28.4538C46.4816 28.4368 45.2771 27.9234 44.3907 27.025C43.5043 26.1265 43.0073 24.9151 43.0073 23.653C43.0073 22.3908 43.5043 21.1794 44.3907 20.2809C45.2771 19.3825 46.4816 18.8691 47.7437 18.8521C48.9559 18.8362 50.1254 19.2994 50.9981 20.1409L52.2708 18.8682C51.6753 18.2787 50.9682 17.814 50.1908 17.5014C49.4134 17.1888 48.5814 17.0345 47.7437 17.0476C46.8682 17.0349 45.9988 17.1963 45.1863 17.5226C44.3737 17.8488 43.6341 18.3333 43.0105 18.9479C42.3868 19.5625 41.8916 20.295 41.5536 21.1027C41.2156 21.9105 41.0415 22.7773 41.0415 23.653C41.0415 24.5286 41.2156 25.3954 41.5536 26.2032C41.8916 27.0109 42.3868 27.7434 43.0105 28.358C43.6341 28.9726 44.3737 29.4571 45.1863 29.7833C45.9988 30.1096 46.8682 30.271 47.7437 30.2582C48.5991 30.2937 49.4524 30.1469 50.2467 29.8275C51.0411 29.508 51.7585 29.0234 52.3513 28.4056C53.4037 27.2568 53.9646 25.7418 53.9141 24.1847C53.9182 23.8065 53.8858 23.4289 53.8173 23.0569H47.7437ZM93.052 24.4585C92.7964 23.6881 92.3098 23.0151 91.6584 22.5309C91.007 22.0466 90.2223 21.7747 89.411 21.7519C88.8645 21.7553 88.3244 21.8695 87.8233 22.0875C87.3222 22.3056 86.8705 22.623 86.4956 23.0205C86.1206 23.4181 85.8302 23.8875 85.6418 24.4005C85.4534 24.9135 85.371 25.4593 85.3996 26.0051C85.3873 26.5642 85.4878 27.1202 85.6951 27.6396C85.9025 28.1591 86.2124 28.6314 86.6064 29.0284C87.0004 29.4254 87.4703 29.7389 87.9882 29.9502C88.5061 30.1615 89.0612 30.2663 89.6205 30.2582C90.3211 30.2621 91.0118 30.0919 91.6304 29.7629C92.249 29.4339 92.7762 28.9565 93.1647 28.3734L91.7148 27.4067C91.4976 27.7675 91.1903 28.0656 90.8231 28.2717C90.456 28.4779 90.0415 28.5851 89.6205 28.5828C89.1872 28.5993 88.7589 28.4853 88.3912 28.2555C88.0234 28.0257 87.7333 27.6907 87.5583 27.2939L93.2454 24.9419L93.052 24.4585ZM87.2523 25.8762C87.2322 25.5667 87.2742 25.2562 87.3755 24.9631C87.4769 24.6699 87.6358 24.3999 87.8428 24.1689C88.0498 23.9379 88.3008 23.7505 88.5812 23.6176C88.8615 23.4848 89.1655 23.4092 89.4754 23.3953C89.7981 23.374 90.1198 23.4483 90.4006 23.6087C90.6814 23.7691 90.9087 24.0087 91.0543 24.2974L87.2523 25.8762ZM82.6285 30.0005H84.4973V17.4988H82.6285V30.0005ZM79.5675 22.7024H79.5031C79.2189 22.3938 78.8722 22.1493 78.486 21.9854C78.0998 21.8215 77.6831 21.7419 77.2637 21.7519C76.167 21.7986 75.1307 22.2671 74.3712 23.0596C73.6117 23.8521 73.1877 24.9074 73.1877 26.0051C73.1877 27.1028 73.6117 28.158 74.3712 28.9506C75.1307 29.7431 76.167 30.2116 77.2637 30.2582C77.6847 30.2695 78.1032 30.1888 78.4899 30.0219C78.8767 29.8549 79.2224 29.6057 79.5031 29.2917H79.5675V29.9039C79.5675 31.5311 78.6976 32.4009 77.2959 32.4009C76.8287 32.3898 76.3755 32.2398 75.9939 31.9701C75.6124 31.7004 75.3197 31.3232 75.1533 30.8865L73.5261 31.5632C73.8328 32.3099 74.3554 32.948 75.027 33.3958C75.6987 33.8435 76.4887 34.0805 77.2959 34.0764C79.487 34.0764 81.3397 32.7876 81.3397 29.646V22.0096H79.5675V22.7024ZM77.4249 28.5828C76.7789 28.528 76.1771 28.2327 75.7385 27.7553C75.2999 27.278 75.0565 26.6534 75.0565 26.0051C75.0565 25.3568 75.2999 24.7322 75.7385 24.2549C76.1771 23.7775 76.7789 23.4822 77.4249 23.4275C77.7462 23.4431 78.0611 23.5234 78.3508 23.6634C78.6405 23.8034 78.899 24.0002 79.111 24.2423C79.323 24.4843 79.4841 24.7666 79.5846 25.0722C79.6852 25.3778 79.7232 25.7005 79.6964 26.0212C79.7215 26.3398 79.6821 26.6602 79.5805 26.9633C79.479 27.2663 79.3173 27.5458 79.1053 27.7849C78.8932 28.0241 78.6351 28.218 78.3464 28.3551C78.0576 28.4921 77.7442 28.5696 77.4249 28.5828ZM101.806 17.4991H97.3347V30.0005H99.2004V25.264H101.806C102.334 25.293 102.862 25.214 103.358 25.032C103.854 24.8499 104.308 24.5686 104.692 24.2053C105.076 23.8419 105.381 23.4041 105.59 22.9186C105.799 22.4331 105.907 21.9101 105.907 21.3815C105.907 20.853 105.799 20.33 105.59 19.8445C105.381 19.359 105.076 18.9212 104.692 18.5578C104.308 18.1945 103.854 17.9132 103.358 17.7311C102.862 17.5491 102.334 17.4701 101.806 17.4991ZM101.854 23.5243H99.2004V19.239H101.854C102.139 19.233 102.423 19.2841 102.688 19.3891C102.953 19.4941 103.194 19.651 103.398 19.8506C103.602 20.0501 103.764 20.2883 103.874 20.5512C103.985 20.8141 104.042 21.0964 104.042 21.3816C104.042 21.6668 103.985 21.9491 103.874 22.212C103.764 22.4749 103.602 22.7131 103.398 22.9126C103.194 23.1122 102.953 23.2691 102.688 23.3741C102.423 23.4791 102.139 23.5302 101.854 23.5243ZM113.386 21.729C112.705 21.6892 112.027 21.8491 111.436 22.1891C110.844 22.5291 110.365 23.0343 110.056 23.6428L111.713 24.3344C111.877 24.0324 112.126 23.7848 112.429 23.622C112.732 23.4592 113.075 23.3882 113.418 23.4177C113.891 23.3714 114.364 23.5148 114.731 23.8163C115.099 24.1177 115.332 24.5528 115.38 25.0259V25.1546C114.781 24.8363 114.112 24.6706 113.434 24.6721C111.649 24.6721 109.831 25.6532 109.831 27.4867C109.849 27.8732 109.944 28.2521 110.11 28.6012C110.277 28.9503 110.512 29.2623 110.801 29.5189C111.091 29.7754 111.429 29.9711 111.795 30.0945C112.162 30.2178 112.55 30.2663 112.935 30.2369C113.405 30.2646 113.874 30.1658 114.292 29.9508C114.711 29.7359 115.064 29.4126 115.316 29.0147H115.38V29.9797H117.181V25.1868C117.181 22.9673 115.525 21.729 113.386 21.729ZM113.161 28.5803C112.549 28.5803 111.697 28.2748 111.697 27.5189C111.697 26.554 112.758 26.184 113.675 26.184C114.271 26.1681 114.86 26.3125 115.38 26.6021C115.312 27.1444 115.049 27.6435 114.641 28.0071C114.233 28.3708 113.707 28.5744 113.161 28.5803ZM123.743 22.0023L121.604 27.4223H121.54L119.32 22.0023H117.31L120.639 29.5775L118.741 33.7913H120.687L125.818 22.0023H123.743ZM106.936 30.0005H108.802V17.4991H106.936V30.0005Z" fill="white"/>
<path d="M10.4352 7.53793C10.1073 7.93 9.9417 8.43263 9.97238 8.94283V31.0589C9.94161 31.5691 10.1072 32.0718 10.4352 32.4638L10.5092 32.5359L22.8982 20.147V19.8547L10.5092 7.46533L10.4352 7.53793Z" fill="url(#paint0_linear_2189_10241)"/>
<path d="M27.0276 24.2787L22.8982 20.1473V19.855L27.0286 15.7246L27.1217 15.7777L32.0145 18.5578C33.4121 19.3518 33.4121 20.651 32.0145 21.4455L27.1217 24.2256L27.0276 24.2787Z" fill="url(#paint1_linear_2189_10241)"/>
<path d="M27.1216 24.2249L22.8981 20.001L10.4351 32.4639C10.7198 32.715 11.0835 32.8587 11.463 32.8699C11.8426 32.8811 12.2141 32.7592 12.5132 32.5253L27.1216 24.2249Z" fill="url(#paint2_linear_2189_10241)"/>
<path d="M27.1216 15.7771L12.5132 7.47666C12.2141 7.24275 11.8426 7.12084 11.463 7.13206C11.0835 7.14327 10.7198 7.2869 10.4351 7.53806L22.8981 20.0011L27.1216 15.7771Z" fill="url(#paint3_linear_2189_10241)"/>
<path opacity="0.2" d="M27.0285 24.1318L12.5132 32.3791C12.2256 32.5981 11.8746 32.7175 11.5131 32.7194C11.1517 32.7214 10.7995 32.6057 10.5096 32.3898L10.4351 32.4643L10.5091 32.5364L10.5096 32.5359C10.7994 32.7519 11.1517 32.8677 11.5131 32.8657C11.8746 32.8638 12.2256 32.7443 12.5132 32.5252L27.1216 24.2248L27.0285 24.1318Z" fill="black"/>
<path opacity="0.12" d="M10.4352 32.3185C10.1073 31.9264 9.94171 31.4238 9.97236 30.9136V31.0597C9.94169 31.5699 10.1073 32.0725 10.4352 32.4646L10.5097 32.3901L10.4352 32.3185Z" fill="black"/>
<path opacity="0.12" d="M32.0145 21.2988L27.0286 24.132L27.1217 24.225L32.0145 21.4449C32.3023 21.32 32.5513 21.1202 32.7357 20.8663C32.9201 20.6125 33.033 20.3138 33.0628 20.0015C33.0009 20.2843 32.8739 20.5488 32.692 20.774C32.51 20.9992 32.278 21.1789 32.0145 21.2988Z" fill="black"/>
<path opacity="0.25" d="M12.5133 7.62334L32.0145 18.7033C32.2782 18.8232 32.5102 19.0029 32.6922 19.2282C32.8742 19.4535 33.0011 19.7182 33.0628 20.0011C33.0333 19.6887 32.9204 19.3899 32.736 19.1359C32.5516 18.8819 32.3025 18.6821 32.0145 18.5572L12.5133 7.47724C11.1157 6.68314 9.97241 7.34274 9.97241 8.94354V9.08964C9.97241 7.48894 11.1157 6.82934 12.5133 7.62334Z" fill="white"/>
</g>
<defs>
<linearGradient id="paint0_linear_2189_10241" x1="21.7995" y1="8.70964" x2="5.01711" y2="25.4921" gradientUnits="userSpaceOnUse">
<stop stop-color="#00A0FF"/>
<stop offset="0.00657" stop-color="#00A1FF"/>
<stop offset="0.2601" stop-color="#00BEFF"/>
<stop offset="0.5122" stop-color="#00D2FF"/>
<stop offset="0.7604" stop-color="#00DFFF"/>
<stop offset="1" stop-color="#00E3FF"/>
</linearGradient>
<linearGradient id="paint1_linear_2189_10241" x1="33.8342" y1="20.0017" x2="9.63727" y2="20.0017" gradientUnits="userSpaceOnUse">
<stop stop-color="#FFE000"/>
<stop offset="0.4087" stop-color="#FFBD00"/>
<stop offset="0.7754" stop-color="#FFA500"/>
<stop offset="1" stop-color="#FF9C00"/>
</linearGradient>
<linearGradient id="paint2_linear_2189_10241" x1="24.8266" y1="22.2961" x2="2.06833" y2="45.0544" gradientUnits="userSpaceOnUse">
<stop stop-color="#FF3A44"/>
<stop offset="1" stop-color="#C31162"/>
</linearGradient>
<linearGradient id="paint3_linear_2189_10241" x1="7.29699" y1="0.176237" x2="17.4595" y2="10.3388" gradientUnits="userSpaceOnUse">
<stop stop-color="#32A071"/>
<stop offset="0.0685" stop-color="#2DA771"/>
<stop offset="0.4762" stop-color="#15CF74"/>
<stop offset="0.8009" stop-color="#06E775"/>
<stop offset="1" stop-color="#00F076"/>
</linearGradient>
<clipPath id="clip0_2189_10241">
<rect width="135" height="40.0002" fill="white"/>
</clipPath>
</defs>
</svg>
