<svg width="33" height="32" viewBox="0 0 33 32" fill="none" xmlns="http://www.w3.org/2000/svg">
<path d="M7.16658 1.33337H3.16659C2.81296 1.33337 2.47382 1.47385 2.22378 1.7239C1.97373 1.97395 1.83325 2.31309 1.83325 2.66671V29.3334C1.83325 29.687 1.97373 30.0261 2.22378 30.2762C2.47382 30.5262 2.81296 30.6667 3.16659 30.6667H7.16658V1.33337Z" fill="#C4B5FD"/>
<path d="M9.83325 30.6667H23.1666V1.33337H9.83325V30.6667ZM16.4999 25.3334C16.1463 25.3334 15.8072 25.1929 15.5571 24.9429C15.3071 24.6928 15.1666 24.3537 15.1666 24C15.1666 23.6464 15.3071 23.3073 15.5571 23.0572C15.8072 22.8072 16.1463 22.6667 16.4999 22.6667C16.8535 22.6667 17.1927 22.8072 17.4427 23.0572C17.6928 23.3073 17.8333 23.6464 17.8333 24C17.8333 24.3537 17.6928 24.6928 17.4427 24.9429C17.1927 25.1929 16.8535 25.3334 16.4999 25.3334ZM16.4999 6.66671C16.8535 6.66671 17.1927 6.80718 17.4427 7.05723C17.6928 7.30728 17.8333 7.64642 17.8333 8.00004C17.8333 8.35366 17.6928 8.6928 17.4427 8.94285C17.1927 9.1929 16.8535 9.33337 16.4999 9.33337C16.1463 9.33337 15.8072 9.1929 15.5571 8.94285C15.3071 8.6928 15.1666 8.35366 15.1666 8.00004C15.1666 7.64642 15.3071 7.30728 15.5571 7.05723C15.8072 6.80718 16.1463 6.66671 16.4999 6.66671ZM16.4999 14.6667C16.8535 14.6667 17.1927 14.8072 17.4427 15.0572C17.6928 15.3073 17.8333 15.6464 17.8333 16C17.8333 16.3537 17.6928 16.6928 17.4427 16.9429C17.1927 17.1929 16.8535 17.3334 16.4999 17.3334C16.1463 17.3334 15.8072 17.1929 15.5571 16.9429C15.3071 16.6928 15.1666 16.3537 15.1666 16C15.1666 15.6464 15.3071 15.3073 15.5571 15.0572C15.8072 14.8072 16.1463 14.6667 16.4999 14.6667Z" fill="#7C3AED"/>
<path d="M29.8333 1.33337H25.8333V30.6667H29.8333C30.1869 30.6667 30.526 30.5262 30.7761 30.2762C31.0261 30.0261 31.1666 29.687 31.1666 29.3334V2.66671C31.1666 2.31309 31.0261 1.97395 30.7761 1.7239C30.526 1.47385 30.1869 1.33337 29.8333 1.33337Z" fill="#1DB5BE"/>
</svg>
