<svg width="375" height="1100" viewBox="0 0 375 1100" fill="none" xmlns="http://www.w3.org/2000/svg">
<g clip-path="url('#clip0_2208_6517')">
<ellipse opacity="0.6" cx="336" cy="211" rx="53" ry="258" fill="#7C3AED"></ellipse>
<ellipse opacity="0.6" cx="238" cy="695.5" rx="22" ry="106.5" fill="#1DB5BE"></ellipse>
<g filter="url('#filter0_b_2208_6517')">
<path d="M0 0H375V726.559L0 955.196V0Z" fill="#F2F7FF" fill-opacity="0.7"></path>
</g>
<path d="M328.125 754.51L437.5 687.802V769.095L328.125 835.803V754.51Z" fill="#75E3EA"></path>
<path d="M215.625 742.828L375 645.266V726.559L215.625 824.121V742.828Z" fill="#C4B5FD"></path>
<path d="M257.292 635.761L366.667 569.053V650.346L257.292 717.054V635.761Z" fill="#EDE9FE"></path>
<path d="M0 873.923L109.375 807.216V888.509L0 955.216V873.923Z" fill="#75E3EA"></path>
<path d="M-39.5833 979.336L69.7917 912.629V993.922L-39.5833 1060.63V979.336Z" fill="#EDE9FE"></path>
</g>
<defs>
<filter id="filter0_b_2208_6517" x="-100" y="-100" width="575" height="1155.2" filterUnits="userSpaceOnUse" color-interpolation-filters="sRGB">
<feFlood flood-opacity="0" result="BackgroundImageFix"></feFlood>
<feGaussianBlur in="BackgroundImage" stdDeviation="50"></feGaussianBlur>
<feComposite in2="SourceAlpha" operator="in" result="effect1_backgroundBlur_2208_6517"></feComposite>
<feBlend mode="normal" in="SourceGraphic" in2="effect1_backgroundBlur_2208_6517" result="shape"></feBlend>
</filter>
<clipPath id="clip0_2208_6517">
<rect width="375" height="1100" fill="white"></rect>
</clipPath>
</defs>
</svg>
