<svg width="33" height="32" viewBox="0 0 33 32" fill="none" xmlns="http://www.w3.org/2000/svg">
<path d="M31.1666 7.99998V2.66665C31.1666 2.31302 31.0261 1.97388 30.7761 1.72384C30.526 1.47379 30.1869 1.33331 29.8333 1.33331H3.16659C2.81296 1.33331 2.47382 1.47379 2.22378 1.72384C1.97373 1.97388 1.83325 2.31302 1.83325 2.66665V7.99998H31.1666Z" fill="#1DB5BE"></path>
<path d="M1.83325 10.6666V29.3333C1.83325 29.6869 1.97373 30.0261 2.22378 30.2761C2.47382 30.5262 2.81296 30.6666 3.16659 30.6666H9.83325V10.6666H1.83325Z" fill="#C4B5FD"></path>
<path d="M12.5 30.6666H29.8333C30.187 30.6666 30.5261 30.5262 30.7761 30.2761C31.0262 30.0261 31.1667 29.6869 31.1667 29.3333V10.6666H12.5V30.6666Z" fill="#7C3AED"></path>
</svg>
