<svg width="113" height="26" viewBox="0 0 113 26" fill="none" xmlns="http://www.w3.org/2000/svg">
<g clip-path="url('#clip0_2189_7021')">
<path d="M40.3578 9.24785V10.7213H40.4032C40.9382 9.93243 41.8264 9.00335 43.7949 9.00335C45.3265 9.00335 46.5013 9.77595 47.0048 10.943H47.0503C47.4804 10.353 47.9734 9.90635 48.5259 9.59014C49.1797 9.21525 49.907 9.00009 50.8231 9.00009C52.8966 9.00009 54.7323 10.3367 54.7323 13.7074V20.1001H51.5714V14.154C51.5714 12.4458 50.949 11.4581 49.6553 11.4581C48.7077 11.4581 48.0188 12.0514 47.7566 12.7816C47.6657 13.0326 47.6237 13.3749 47.6237 13.6618V20.1033H44.4628V13.9128C44.4628 12.4621 43.8649 11.4548 42.5886 11.4548C41.5676 11.4548 40.9277 12.2046 40.6655 12.8468C40.5536 13.1206 40.5186 13.4368 40.5186 13.7335V20.1001H37.3542V9.24785H40.3578ZM71.0475 9.24785V11.2951H71.1349C71.7153 9.73031 73.093 9.00335 74.3028 9.00335C74.607 9.00335 74.7748 9.02617 75.0196 9.07181V11.9144C74.7294 11.8753 74.4602 11.8362 74.0825 11.8362C72.7119 11.8362 71.7573 12.5795 71.516 13.7433C71.4636 13.9845 71.4461 14.2453 71.4461 14.5452V20.1033H68.2012V9.24785H71.0475ZM79.4253 5.65217V9.06855H82.1667V11.833H79.4253V15.9111C79.4253 17.2314 79.7855 17.8703 80.8554 17.8703C81.359 17.8703 81.7296 17.8116 82.0513 17.7366L82.0932 20.0284C81.6632 20.1783 80.747 20.3413 79.817 20.3413C78.7225 20.3413 77.8099 19.986 77.2539 19.4351C76.6176 18.8059 76.3239 17.7758 76.3239 16.3088V5.65217H79.4253ZM35.1513 20.1001H32.0044V5.65217H35.1513V20.1001ZM26.7595 16.224C26.7595 16.4229 26.742 16.6315 26.6826 16.8108C26.4378 17.5639 25.6021 18.1995 24.5601 18.1995C23.6895 18.1995 22.9971 17.7399 22.9971 16.7652C22.9971 15.2754 24.7594 14.8614 26.763 14.8712V16.224H26.7595ZM29.9029 13.6259C29.9029 11.1647 28.777 9.00335 24.9692 9.00335C23.0146 9.00335 21.4621 9.51516 20.616 9.97155L21.2349 11.947C22.0076 11.4907 23.2419 11.1158 24.4098 11.1158C26.3434 11.1125 26.6581 12.1361 26.6581 12.7914V12.9478C22.4447 12.9413 19.7838 14.3007 19.7838 17.0716C19.7838 18.7635 21.137 20.3478 23.4937 20.3478C24.9448 20.3478 26.1546 19.8099 26.8819 18.9461H26.9518C26.9518 18.9461 27.4343 20.8205 30.0848 20.1033C29.9449 19.321 29.8994 18.4897 29.8994 17.4889V13.6259H29.9029ZM3.97562 5.65217C4.30081 7.18107 5.22391 11.6211 5.22391 11.6211C5.61203 13.4466 5.96869 15.3602 6.23793 16.8728H6.28688C6.54912 15.2656 6.96172 13.7433 7.4023 11.859L8.95828 5.65217H12.4024L13.857 12.0188C14.2382 13.7889 14.5424 15.1548 14.7836 16.801H14.8291C15.0913 15.1385 15.434 13.7172 15.8081 11.8982L17.2068 5.65217H20.5111L16.4165 20.1001C13.8081 20.6314 12.808 19.6535 12.4514 18.1017C12.0947 16.5468 11.3954 13.59 11.3954 13.59C11.0353 11.9699 10.7555 10.8289 10.5597 9.16635H10.5108C10.231 10.8126 9.93733 11.9666 9.50375 13.5868L7.78692 20.1033C5.12251 20.5988 4.19941 19.8654 3.6889 17.8736C3.24833 16.1686 0.5 5.65543 0.5 5.65543H3.97562V5.65217ZM62.9563 16.224C62.9563 16.4229 62.9389 16.6315 62.8794 16.8108C62.6346 17.5639 61.799 18.1995 60.757 18.1995C59.8863 18.1995 59.194 17.7399 59.194 16.7652C59.194 15.2754 60.9563 14.8614 62.9598 14.8712V16.224H62.9563ZM66.0998 13.6259C66.0998 11.1647 64.9739 9.00335 61.1661 9.00335C59.2115 9.00335 57.659 9.51516 56.8128 9.97155L57.4317 11.947C58.2044 11.4907 59.4387 11.1158 60.6066 11.1158C62.5367 11.1125 62.8549 12.1361 62.8549 12.7914V12.9478C58.645 12.9413 55.9841 14.3007 55.9841 17.0716C55.9841 18.7635 57.3408 20.3478 59.694 20.3478C61.1416 20.3478 62.3549 19.8099 63.0787 18.9461H63.1521C63.1521 18.9461 63.6347 20.8205 66.2851 20.1033C66.1452 19.321 66.0998 18.4897 66.0998 17.4889V13.6259Z" fill="#041E42"></path>
<path d="M94.9232 15.1241C95.2334 15.6517 95.2125 16.2406 94.8814 16.5096L89.1584 20.4276C88.5624 20.7646 87.6702 20.3561 87.1648 19.5017C86.6559 18.6439 86.7465 17.6874 87.3425 17.3504L93.6789 14.4705C94.0763 14.3208 94.613 14.5965 94.9232 15.1241ZM102.455 15.1241C102.769 14.5965 103.302 14.3242 103.699 14.4671L110.039 17.3469C110.635 17.6839 110.722 18.6405 110.217 19.4983C109.708 20.3527 108.812 20.7578 108.22 20.4242L102.497 16.5062C102.169 16.2406 102.145 15.6483 102.455 15.1241ZM98.6874 17.2482C99.3113 17.2482 99.8237 17.5614 99.8934 17.9733L100.51 24.7745C100.51 25.4485 99.7052 26 98.6909 26C97.6802 26 96.8715 25.4485 96.8715 24.7745L97.485 17.9733C97.5547 17.5614 98.067 17.2482 98.6874 17.2482ZM102.497 9.49385L108.22 5.5724C108.812 5.2354 109.708 5.64048 110.217 6.4983C110.722 7.35611 110.635 8.31265 110.039 8.64965L103.699 11.5329C103.302 11.6758 102.765 11.4035 102.455 10.8759C102.145 10.3483 102.169 9.75936 102.497 9.49385ZM93.6789 11.5329L87.3425 8.64965C86.75 8.31265 86.6594 7.35611 87.1648 6.4983C87.6702 5.64048 88.5659 5.2354 89.1584 5.5724L94.8814 9.49385C95.2125 9.75596 95.2334 10.3483 94.9232 10.8759C94.613 11.4035 94.0763 11.6758 93.6789 11.5329ZM97.485 8.02671L96.8715 1.22545C96.8715 0.551453 97.6767 0 98.6909 0C99.7052 0 100.51 0.551453 100.51 1.22545L99.8934 8.02671C99.8237 8.43519 99.3113 8.75177 98.6874 8.75177C98.067 8.75177 97.5547 8.43519 97.485 8.02671ZM111.765 20.4004V20.2302H111.921C111.974 20.2302 112.008 20.2642 112.008 20.3153C112.008 20.3629 111.974 20.4004 111.921 20.4004H111.765ZM111.636 20.7101C111.636 20.7272 111.65 20.7442 111.67 20.7442H111.737C111.754 20.7442 111.771 20.7272 111.771 20.7101V20.5161H111.88L111.967 20.7203C111.974 20.734 111.984 20.7442 111.998 20.7442H112.078C112.103 20.7442 112.12 20.7203 112.11 20.6965C112.078 20.6352 112.047 20.5706 112.015 20.5059C112.068 20.4889 112.148 20.4378 112.148 20.3153C112.148 20.1859 112.04 20.111 111.932 20.111H111.67C111.653 20.111 111.636 20.128 111.636 20.1451V20.7101ZM111.353 20.4276C111.353 20.1519 111.583 19.9272 111.866 19.9272C112.148 19.9272 112.378 20.1485 112.378 20.4276C112.378 20.7033 112.151 20.928 111.866 20.928C111.58 20.928 111.353 20.7033 111.353 20.4276ZM111.231 20.4276C111.231 20.768 111.514 21.0471 111.866 21.0471C112.214 21.0471 112.5 20.768 112.5 20.4276C112.5 20.0872 112.214 19.8081 111.866 19.8081C111.514 19.8081 111.231 20.0872 111.231 20.4276Z" fill="#FFC124"></path>
</g>
<defs>
<clipPath id="clip0_2189_7021">
<rect width="112" height="26" fill="white" transform="translate(0.5)"></rect>
</clipPath>
</defs>
</svg>
