<svg width="33" height="32" viewBox="0 0 33 32" fill="none" xmlns="http://www.w3.org/2000/svg">
<g clip-path="url('#clip0_2189_8226')">
<path d="M15.7081 0.176053L1.2814 6.91605C1.18384 6.96079 1.10119 7.03263 1.0433 7.123C0.9854 7.21338 0.954694 7.31848 0.954834 7.42581C0.954975 7.53314 0.985955 7.63817 1.04409 7.7284C1.10222 7.81862 1.18506 7.89024 1.28274 7.93472L15.8227 14.6254C16.2521 14.8227 16.7481 14.8227 17.1774 14.6254L31.7174 7.93472C31.8151 7.89036 31.8981 7.81886 31.9563 7.72871C32.0146 7.63856 32.0457 7.53357 32.046 7.42624C32.0463 7.31891 32.0157 7.21376 31.9579 7.12331C31.9001 7.03286 31.8176 6.96092 31.7201 6.91605L17.2921 0.176053C17.0441 0.0601784 16.7738 0.00012207 16.5001 0.00012207C16.2264 0.00012207 15.956 0.0601784 15.7081 0.176053Z" fill="#7C3AED"></path>
<path opacity="0.64" d="M31.72 15.5681L28.74 14.1761C28.5266 14.0764 28.294 14.0244 28.0584 14.0237C27.8229 14.023 27.59 14.0736 27.376 14.1721L17.1773 18.8654C16.9649 18.9631 16.7338 19.0137 16.5 19.0137C16.2662 19.0137 16.0351 18.9631 15.8227 18.8654L5.62267 14.1721C5.40885 14.0738 5.17621 14.0233 4.9409 14.024C4.70559 14.0247 4.47324 14.0766 4.26001 14.1761L1.28001 15.5681C1.1825 15.613 1.09995 15.6849 1.04217 15.7754C0.98439 15.8658 0.953823 15.971 0.954103 16.0783C0.954384 16.1856 0.985502 16.2906 1.04375 16.3808C1.10201 16.4709 1.18494 16.5424 1.28267 16.5868L15.8227 23.2761C16.035 23.3743 16.2661 23.4252 16.5 23.4252C16.7339 23.4252 16.965 23.3743 17.1773 23.2761L31.7173 16.5868C31.8151 16.5424 31.898 16.4709 31.9563 16.3808C32.0145 16.2906 32.0456 16.1856 32.0459 16.0783C32.0462 15.971 32.0156 15.8658 31.9578 15.7754C31.9001 15.6849 31.8175 15.613 31.72 15.5681Z" fill="#C4B5FD"></path>
<path d="M31.72 24.1441L28.74 22.7521C28.5266 22.6524 28.294 22.6004 28.0585 22.5997C27.8229 22.599 27.59 22.6496 27.376 22.7481L17.1774 27.4401C16.9649 27.5378 16.7338 27.5883 16.5 27.5883C16.2662 27.5883 16.0351 27.5378 15.8227 27.4401L5.62269 22.7468C5.40887 22.6485 5.17623 22.5979 4.94091 22.5986C4.7056 22.5993 4.47326 22.6512 4.26002 22.7507L1.28002 24.1441C1.18289 24.1891 1.10071 24.261 1.0432 24.3513C0.985701 24.4416 0.955288 24.5465 0.955568 24.6536C0.955849 24.7607 0.986813 24.8654 1.04479 24.9554C1.10277 25.0454 1.18532 25.1169 1.28269 25.1614L15.8227 31.8521C16.252 32.0494 16.748 32.0494 17.1774 31.8521L31.7174 25.1614C31.8147 25.1169 31.8973 25.0454 31.9553 24.9554C32.0132 24.8654 32.0442 24.7607 32.0445 24.6536C32.0448 24.5465 32.0143 24.4416 31.9568 24.3513C31.8993 24.261 31.8172 24.1891 31.72 24.1441Z" fill="#1DB5BE"></path>
</g>
<defs>
<clipPath id="clip0_2189_8226">
<rect width="32" height="32" fill="white" transform="translate(0.5)"></rect>
</clipPath>
</defs>
</svg>
